<svg width="224" height="38" viewBox="0 0 224 38" fill="none" xmlns="http://www.w3.org/2000/svg">
<path d="M7.84661 6.81818V33H0.789795V6.81818H7.84661Z" fill="#FCC341"/>
<path d="M20.8512 33.358C18.7546 33.358 16.9478 32.9574 15.4308 32.1562C13.9223 31.3466 12.7589 30.1875 11.9407 28.679C11.1311 27.1619 10.7262 25.3466 10.7262 23.2329C10.7262 21.2045 11.1353 19.4318 11.9535 17.9148C12.7717 16.3977 13.9265 15.2173 15.418 14.3736C16.9095 13.5298 18.6694 13.108 20.6978 13.108C22.1808 13.108 23.5231 13.3381 24.7248 13.7983C25.9265 14.2585 26.9535 14.9276 27.8058 15.8054C28.658 16.6747 29.3143 17.7315 29.7745 18.9758C30.2348 20.2202 30.4649 21.6222 30.4649 23.1818V24.8182H12.9251V20.9318H23.9705C23.962 20.3693 23.8171 19.875 23.5359 19.4489C23.2632 19.0142 22.8924 18.6776 22.4237 18.4389C21.9634 18.1918 21.4393 18.0682 20.8512 18.0682C20.2802 18.0682 19.7561 18.1918 19.2788 18.4389C18.8015 18.6776 18.418 19.0099 18.1282 19.4361C17.847 19.8622 17.6978 20.3608 17.6808 20.9318V25.125C17.6808 25.7557 17.8129 26.3182 18.0771 26.8125C18.3413 27.3068 18.7205 27.6946 19.2149 27.9758C19.7092 28.2571 20.3058 28.3977 21.0046 28.3977C21.4904 28.3977 21.9336 28.3295 22.3342 28.1932C22.7433 28.0568 23.0927 27.8608 23.3825 27.6051C23.6723 27.3409 23.8853 27.0256 24.0217 26.6591H30.4649C30.2433 28.0227 29.7191 29.2074 28.8924 30.2131C28.0657 31.2102 26.9705 31.9858 25.6069 32.5398C24.2518 33.0852 22.6666 33.358 20.8512 33.358Z" fill="#FCC341"/>
<path d="M33.3445 33V13.3636H40.0433V17.0966H40.2479C40.657 15.8693 41.3558 14.8977 42.3445 14.1818C43.3331 13.4659 44.5093 13.108 45.8729 13.108C47.2536 13.108 48.4425 13.4744 49.4397 14.2074C50.4368 14.9318 51.0377 15.8949 51.2422 17.0966H51.4468C51.7791 15.8949 52.4865 14.9318 53.5689 14.2074C54.6513 13.4744 55.9212 13.108 57.3786 13.108C59.2621 13.108 60.7877 13.7131 61.9553 14.9233C63.1314 16.1335 63.7195 17.7443 63.7195 19.7557V33H56.6627V21.5454C56.6627 20.6847 56.4453 20.0114 56.0107 19.5256C55.576 19.0312 54.9922 18.7841 54.2593 18.7841C53.5348 18.7841 52.9595 19.0312 52.5334 19.5256C52.1158 20.0114 51.907 20.6847 51.907 21.5454V33H45.157V21.5454C45.157 20.6847 44.9397 20.0114 44.505 19.5256C44.0703 19.0312 43.4865 18.7841 42.7536 18.7841C42.2678 18.7841 41.8502 18.8949 41.5007 19.1165C41.1513 19.3381 40.8786 19.6577 40.6826 20.0753C40.4951 20.4844 40.4013 20.9744 40.4013 21.5454V33H33.3445Z" fill="#FCC341"/>
<path d="M76.6602 33.358C74.5295 33.358 72.7056 32.9361 71.1886 32.0923C69.6715 31.2401 68.5082 30.0554 67.6985 28.5383C66.8889 27.0128 66.484 25.2443 66.484 23.2329C66.484 21.2216 66.8889 19.4574 67.6985 17.9403C68.5082 16.4148 69.6715 15.2301 71.1886 14.3864C72.7056 13.5341 74.5295 13.108 76.6602 13.108C78.7909 13.108 80.6147 13.5341 82.1318 14.3864C83.6488 15.2301 84.8122 16.4148 85.6218 17.9403C86.4315 19.4574 86.8363 21.2216 86.8363 23.2329C86.8363 25.2443 86.4315 27.0128 85.6218 28.5383C84.8122 30.0554 83.6488 31.2401 82.1318 32.0923C80.6147 32.9361 78.7909 33.358 76.6602 33.358ZM76.7113 28.142C77.3079 28.142 77.8235 27.9418 78.2582 27.5412C78.6929 27.1406 79.0295 26.5696 79.2681 25.8281C79.5068 25.0866 79.6261 24.2045 79.6261 23.1818C79.6261 22.1506 79.5068 21.2685 79.2681 20.5355C79.0295 19.794 78.6929 19.223 78.2582 18.8224C77.8235 18.4219 77.3079 18.2216 76.7113 18.2216C76.0806 18.2216 75.5394 18.4219 75.0877 18.8224C74.636 19.223 74.2909 19.794 74.0522 20.5355C73.8136 21.2685 73.6943 22.1506 73.6943 23.1818C73.6943 24.2045 73.8136 25.0866 74.0522 25.8281C74.2909 26.5696 74.636 27.1406 75.0877 27.5412C75.5394 27.9418 76.0806 28.142 76.7113 28.142Z" fill="#FCC341"/>
<path d="M96.7568 21.9545V33H89.7V13.3636H96.3988V17.0966H96.6034C97.0295 15.8523 97.7795 14.8764 98.8534 14.169C99.9357 13.4616 101.197 13.108 102.637 13.108C104.027 13.108 105.233 13.4276 106.255 14.0668C107.287 14.6974 108.083 15.5668 108.646 16.6747C109.217 17.7827 109.498 19.0483 109.49 20.4716V33H102.433V21.9545C102.441 20.9829 102.194 20.2202 101.691 19.6662C101.197 19.1122 100.507 18.8352 99.6204 18.8352C99.0409 18.8352 98.5338 18.9631 98.0991 19.2187C97.673 19.4659 97.3448 19.8239 97.1147 20.2926C96.8846 20.7528 96.7653 21.3068 96.7568 21.9545Z" fill="#FCC341"/>
<path d="M113.688 33V6.81818H120.744V16.7898H120.847C121.102 16.125 121.477 15.5156 121.972 14.9616C122.466 14.3991 123.08 13.9517 123.812 13.6193C124.545 13.2784 125.398 13.108 126.369 13.108C127.665 13.108 128.896 13.4531 130.064 14.1435C131.24 14.8338 132.195 15.9204 132.928 17.4034C133.669 18.8864 134.04 20.8125 134.04 23.1818C134.04 25.4489 133.686 27.3281 132.979 28.8196C132.28 30.3111 131.342 31.4233 130.166 32.1562C128.999 32.8892 127.716 33.2557 126.318 33.2557C125.398 33.2557 124.575 33.1065 123.851 32.8082C123.135 32.5014 122.521 32.0881 122.01 31.5682C121.507 31.0398 121.119 30.4432 120.847 29.7784H120.693V33H113.688ZM120.591 23.1818C120.591 24.1364 120.714 24.9631 120.962 25.6619C121.217 26.3523 121.575 26.8892 122.036 27.2727C122.504 27.6477 123.062 27.8352 123.71 27.8352C124.358 27.8352 124.908 27.652 125.359 27.2855C125.82 26.9105 126.169 26.3778 126.408 25.6875C126.655 24.9886 126.778 24.1534 126.778 23.1818C126.778 22.2102 126.655 21.3793 126.408 20.6889C126.169 19.9901 125.82 19.4574 125.359 19.0909C124.908 18.7159 124.358 18.5284 123.71 18.5284C123.062 18.5284 122.504 18.7159 122.036 19.0909C121.575 19.4574 121.217 19.9901 120.962 20.6889C120.714 21.3793 120.591 22.2102 120.591 23.1818Z" fill="#0F0B01"/>
<path d="M146.402 33.358C144.305 33.358 142.499 32.9574 140.982 32.1562C139.473 31.3466 138.31 30.1875 137.491 28.679C136.682 27.1619 136.277 25.3466 136.277 23.2329C136.277 21.2045 136.686 19.4318 137.504 17.9148C138.322 16.3977 139.477 15.2173 140.969 14.3736C142.46 13.5298 144.22 13.108 146.249 13.108C147.732 13.108 149.074 13.3381 150.276 13.7983C151.477 14.2585 152.504 14.9276 153.357 15.8054C154.209 16.6747 154.865 17.7315 155.325 18.9758C155.786 20.2202 156.016 21.6222 156.016 23.1818V24.8182H138.476V20.9318H149.521C149.513 20.3693 149.368 19.875 149.087 19.4489C148.814 19.0142 148.443 18.6776 147.974 18.4389C147.514 18.1918 146.99 18.0682 146.402 18.0682C145.831 18.0682 145.307 18.1918 144.83 18.4389C144.352 18.6776 143.969 19.0099 143.679 19.4361C143.398 19.8622 143.249 20.3608 143.232 20.9318V25.125C143.232 25.7557 143.364 26.3182 143.628 26.8125C143.892 27.3068 144.271 27.6946 144.766 27.9758C145.26 28.2571 145.857 28.3977 146.555 28.3977C147.041 28.3977 147.484 28.3295 147.885 28.1932C148.294 28.0568 148.643 27.8608 148.933 27.6051C149.223 27.3409 149.436 27.0256 149.572 26.6591H156.016C155.794 28.0227 155.27 29.2074 154.443 30.2131C153.616 31.2102 152.521 31.9858 151.158 32.5398C149.803 33.0852 148.217 33.358 146.402 33.358Z" fill="#0F0B01"/>
<path d="M170.605 13.3636V18.4773H157.668V13.3636H170.605ZM160.174 8.65909H167.23V26.6847C167.23 26.9574 167.277 27.1875 167.371 27.375C167.465 27.554 167.61 27.6903 167.806 27.7841C168.002 27.8693 168.253 27.9119 168.56 27.9119C168.773 27.9119 169.02 27.8864 169.301 27.8352C169.591 27.7841 169.804 27.7415 169.941 27.7074L170.963 32.6676C170.648 32.7614 170.196 32.8764 169.608 33.0128C169.029 33.1491 168.338 33.2386 167.537 33.2812C165.918 33.3665 164.559 33.2003 163.459 32.7827C162.36 32.3565 161.533 31.6875 160.979 30.7756C160.425 29.8636 160.157 28.7216 160.174 27.3494V8.65909Z" fill="#0F0B01"/>
<path d="M191.223 19.7557H184.729C184.695 19.3551 184.554 19.0099 184.307 18.7202C184.06 18.4304 183.74 18.2088 183.348 18.0554C182.964 17.8935 182.538 17.8125 182.07 17.8125C181.464 17.8125 180.945 17.9233 180.51 18.1449C180.075 18.3665 179.862 18.6818 179.871 19.0909C179.862 19.3807 179.986 19.6491 180.241 19.8963C180.506 20.1435 181.013 20.3352 181.763 20.4716L185.751 21.1875C187.763 21.554 189.259 22.1719 190.239 23.0412C191.227 23.902 191.726 25.0568 191.734 26.5057C191.726 27.9034 191.308 29.1179 190.482 30.1491C189.663 31.1719 188.543 31.9645 187.119 32.527C185.705 33.081 184.089 33.358 182.274 33.358C179.274 33.358 176.926 32.7443 175.23 31.517C173.543 30.2898 172.601 28.6704 172.405 26.6591H179.411C179.504 27.2812 179.811 27.7628 180.331 28.1037C180.859 28.4361 181.524 28.6023 182.325 28.6023C182.973 28.6023 183.506 28.4915 183.923 28.2699C184.349 28.0483 184.567 27.733 184.575 27.3239C184.567 26.9489 184.379 26.6506 184.013 26.429C183.655 26.2074 183.092 26.0284 182.325 25.892L178.848 25.2784C176.845 24.929 175.345 24.2642 174.348 23.2841C173.351 22.304 172.857 21.0426 172.865 19.5C172.857 18.1364 173.214 16.9815 173.939 16.0355C174.672 15.081 175.716 14.3565 177.071 13.8622C178.435 13.3594 180.05 13.108 181.916 13.108C184.754 13.108 186.991 13.696 188.628 14.8722C190.273 16.0483 191.138 17.6761 191.223 19.7557Z" fill="#0F0B01"/>
<path fill-rule="evenodd" clip-rule="evenodd" d="M197.316 33.6815C198.027 34.2616 198.4 34.3401 199.216 34.1485C202.877 33.2893 208.451 30.6098 210.88 27.6333C211.766 26.5462 211.098 25.3251 210.078 24.4925L198.836 15.3221C196.59 13.4898 194.733 14.3568 195.026 17.0781L196.435 30.9515C196.519 31.7846 196.475 32.9953 197.316 33.6815Z" fill="#FCC341"/>
<path fill-rule="evenodd" clip-rule="evenodd" d="M199.567 12.9926L212.037 23.1659C214.635 25.2846 216.546 19.7172 217.114 18.2204C217.974 15.9563 218.665 12.6065 218.721 10.1631C218.787 7.28526 215.246 8.13934 214.149 8.25066L200.833 9.59803C200.132 9.67888 199.216 10.0001 198.886 10.8007C198.604 11.485 198.843 12.4023 199.567 12.9926Z" fill="#FCC341"/>
</svg>
