<svg width="28" height="28" viewBox="0 0 28 28" fill="none" xmlns="http://www.w3.org/2000/svg">
<path fill-rule="evenodd" clip-rule="evenodd" d="M10.0658 4.07164C11.3702 4.07164 12.3722 4.36444 13.3435 4.9237C13.8681 5.22573 14.249 5.51543 14.698 5.96445C14.9245 6.19088 15.231 6.54749 15.4127 6.81906C16 7.69648 16.3883 8.63821 16.5083 9.71562C16.6005 10.5437 16.5641 11.0514 16.3959 11.8609C16.1641 12.9758 15.5361 14.1156 14.7393 14.9123C14.6039 15.0477 14.499 15.1685 14.345 15.2888L13.9007 15.6431C13.6989 15.7951 13.1688 16.1165 12.92 16.2317C10.9724 17.1333 8.75139 17.0552 6.9082 15.9568C6.81584 15.9018 6.76266 15.8659 6.67039 15.8092L6.20771 15.4734C6.12358 15.4064 6.06458 15.3589 5.98412 15.284C5.4868 14.8217 5.27788 14.6339 4.86736 14.0331C4.59491 13.6343 4.50649 13.4205 4.3116 13.0195C4.14343 12.6734 4.02455 12.2522 3.92615 11.8356C3.53403 10.1759 3.91441 8.20524 4.90546 6.8405C5.60328 5.87957 6.35581 5.18332 7.48684 4.65886C8.1482 4.35216 9.11235 4.07164 10.0658 4.07164ZM27.4109 25.0157V25.2802C27.3821 25.5781 27.2565 25.8746 27.0374 26.1642C26.5948 26.7493 25.5843 27.8035 24.906 27.8041H24.8799C24.3591 27.8035 24.2956 27.7834 23.8202 27.4576L23.2191 26.9024C22.5662 26.2495 15.3691 19.015 15.2142 18.9113L14.1447 19.4111C13.783 19.5567 13.3763 19.7059 12.9787 19.8144C10.3297 20.537 7.59973 20.2809 5.22017 18.9939C4.39279 18.5464 3.91312 18.0861 3.27229 17.4452C2.04699 16.2199 1.14919 14.6613 0.72105 12.9758C0.439879 11.8689 0.429896 11.3498 0.429626 10.3123V10.1354V10.1287C0.429626 9.23647 0.715142 7.90724 1.0353 7.10012C1.26961 6.50947 1.33682 6.37872 1.6039 5.85162C1.76344 5.5368 2.10624 5.01223 2.30936 4.73996C2.40193 4.61587 2.47958 4.51631 2.5735 4.39841C2.727 4.20571 3.26592 3.58614 3.44222 3.45002L4.09136 2.88775C4.32591 2.70455 4.53102 2.54906 4.79071 2.3757C5.2356 2.07867 5.87778 1.71976 6.36453 1.52671C6.97185 1.28582 7.50454 1.09544 8.21425 0.953658C9.12554 0.771588 9.0541 0.831649 9.84408 0.766354C10.3607 0.72367 10.982 0.761794 11.5096 0.838205C12.9706 1.04979 13.8526 1.38385 15.1223 2.07114C15.8426 2.46107 16.5794 3.08283 17.1621 3.66554C17.7167 4.22017 17.8308 4.41225 18.2625 4.98792C18.4544 5.24373 18.7955 5.83491 18.9403 6.12723C19.3611 6.97627 19.6765 7.92655 19.836 8.86572C19.8667 9.04627 19.8841 9.20414 19.9109 9.39662C20.0774 10.5954 19.9206 12.2458 19.5542 13.3674C19.188 14.4885 19.1033 14.5811 18.5456 15.635C18.7136 15.7475 26.0098 23.0942 26.826 23.9012C26.8896 23.9641 26.8979 23.9756 26.9546 24.048C27.0067 24.1147 27.0354 24.1339 27.0809 24.197C27.2753 24.467 27.3844 24.7412 27.4109 25.0157Z" fill="#8A8A8A"/>
</svg>
