<svg width="21" height="18" viewBox="0 0 21 18" fill="none" xmlns="http://www.w3.org/2000/svg">
<path fill-rule="evenodd" clip-rule="evenodd" d="M0 1.75338V11.2628C0 11.6008 0.253637 11.9382 0.469271 12.155C0.934778 12.6231 1.70443 12.8899 2.39094 12.9562C2.80464 12.9962 3.30625 12.9749 3.75427 12.9749L9.90152 12.9748C10.1677 12.973 10.0729 12.9592 10.3728 13.1842C12.1214 14.4959 13.8714 15.875 15.6183 17.18C15.6915 17.2347 15.7423 17.2855 15.8216 17.3274C15.8216 16.939 15.7694 16.6106 15.7602 16.2336L15.5328 12.9749H17.5543C17.8922 12.9749 18.2801 12.8982 18.552 12.8175C18.8591 12.7263 19.1059 12.6138 19.3556 12.4659C19.8765 12.1576 20.2359 11.681 20.2359 11.0153V2.00091C20.2359 1.57782 20.1462 1.31871 19.9679 1.07248C19.4447 0.3499 18.3367 0 17.4512 0H2.76413C1.82481 0 0.550538 0.410345 0.116235 1.29202C0.0606672 1.40482 0 1.59481 0 1.75338Z" fill="#EB9412"/>
</svg>
