<svg width="111" height="15" viewBox="0 0 111 15" fill="none" xmlns="http://www.w3.org/2000/svg">
<path d="M102.049 0.927036C102.348 0.00572556 103.652 0.00572604 103.951 0.927037L105.021 4.21883C105.154 4.63086 105.538 4.90982 105.972 4.90982H109.433C110.402 4.90982 110.804 6.14943 110.021 6.71883L107.22 8.75328C106.87 9.00792 106.723 9.45929 106.857 9.87131L107.927 13.1631C108.226 14.0844 107.172 14.8505 106.388 14.2811L103.588 12.2467C103.237 11.9921 102.763 11.9921 102.412 12.2467L99.612 14.2811C98.8283 14.8505 97.7738 14.0844 98.0732 13.1631L99.1428 9.87131C99.2766 9.45929 99.13 9.00792 98.7795 8.75328L95.9793 6.71883C95.1956 6.14943 95.5984 4.90982 96.5671 4.90982H100.028C100.462 4.90982 100.845 4.63086 100.979 4.21883L102.049 0.927036Z" fill="#EA8D02"/>
<path d="M78.0489 0.927036C78.3483 0.00572556 79.6517 0.00572604 79.951 0.927037L81.0206 4.21883C81.1545 4.63086 81.5384 4.90982 81.9717 4.90982H85.4329C86.4016 4.90982 86.8044 6.14943 86.0207 6.71883L83.2205 8.75328C82.87 9.00792 82.7233 9.45929 82.8572 9.87131L83.9268 13.1631C84.2261 14.0844 83.1717 14.8505 82.3879 14.2811L79.5878 12.2467C79.2373 11.9921 78.7627 11.9921 78.4122 12.2467L75.612 14.2811C74.8283 14.8505 73.7738 14.0844 74.0732 13.1631L75.1428 9.87131C75.2766 9.45929 75.13 9.00792 74.7795 8.75328L71.9793 6.71883C71.1956 6.14943 71.5984 4.90982 72.5671 4.90982H76.0283C76.4615 4.90982 76.8455 4.63086 76.9794 4.21883L78.0489 0.927036Z" fill="#EA8D02"/>
<path d="M54.0489 0.927036C54.3483 0.00572556 55.6517 0.00572604 55.951 0.927037L57.0206 4.21883C57.1545 4.63086 57.5384 4.90982 57.9717 4.90982H61.4329C62.4016 4.90982 62.8044 6.14943 62.0207 6.71883L59.2205 8.75328C58.87 9.00792 58.7233 9.45929 58.8572 9.87131L59.9268 13.1631C60.2261 14.0844 59.1717 14.8505 58.3879 14.2811L55.5878 12.2467C55.2373 11.9921 54.7627 11.9921 54.4122 12.2467L51.612 14.2811C50.8283 14.8505 49.7738 14.0844 50.0732 13.1631L51.1428 9.87131C51.2766 9.45929 51.13 9.00792 50.7795 8.75328L47.9793 6.71883C47.1956 6.14943 47.5984 4.90982 48.5671 4.90982H52.0283C52.4615 4.90982 52.8455 4.63086 52.9794 4.21883L54.0489 0.927036Z" fill="#EA8D02"/>
<path d="M30.0489 0.927036C30.3483 0.00572556 31.6517 0.00572604 31.951 0.927037L33.0206 4.21883C33.1545 4.63086 33.5384 4.90982 33.9717 4.90982H37.4329C38.4016 4.90982 38.8044 6.14943 38.0207 6.71883L35.2205 8.75328C34.87 9.00792 34.7233 9.45929 34.8572 9.87131L35.9268 13.1631C36.2261 14.0844 35.1717 14.8505 34.3879 14.2811L31.5878 12.2467C31.2373 11.9921 30.7627 11.9921 30.4122 12.2467L27.612 14.2811C26.8283 14.8505 25.7738 14.0844 26.0732 13.1631L27.1428 9.87131C27.2766 9.45929 27.13 9.00792 26.7795 8.75328L23.9793 6.71883C23.1956 6.14943 23.5984 4.90982 24.5671 4.90982H28.0283C28.4615 4.90982 28.8455 4.63086 28.9794 4.21883L30.0489 0.927036Z" fill="#EA8D02"/>
<path d="M7.04893 0.927036C7.34828 0.00572556 8.65169 0.00572604 8.95104 0.927037L10.0206 4.21883C10.1545 4.63086 10.5384 4.90982 10.9717 4.90982H14.4329C15.4016 4.90982 15.8044 6.14943 15.0207 6.71883L12.2205 8.75328C11.87 9.00792 11.7233 9.45929 11.8572 9.87131L12.9268 13.1631C13.2261 14.0844 12.1717 14.8505 11.3879 14.2811L8.58777 12.2467C8.23728 11.9921 7.76269 11.9921 7.4122 12.2467L4.61203 14.2811C3.82832 14.8505 2.77384 14.0844 3.07319 13.1631L4.14276 9.87131C4.27663 9.45929 4.12997 9.00792 3.77949 8.75328L0.979317 6.71883C0.195603 6.14943 0.598379 4.90982 1.5671 4.90982H5.0283C5.46153 4.90982 5.84548 4.63086 5.97936 4.21883L7.04893 0.927036Z" fill="#D0D0D0"/>
</svg>
