<svg width="37" height="38" viewBox="0 0 37 38" fill="none" xmlns="http://www.w3.org/2000/svg">
<path fill-rule="evenodd" clip-rule="evenodd" d="M10.3158 33.6815C11.0269 34.2616 11.3996 34.3401 12.2159 34.1485C15.8771 33.2893 21.4514 30.6098 23.8796 27.6333C24.7664 26.5462 24.0983 25.3251 23.0776 24.4925L11.8364 15.3221C9.59029 13.4898 7.73324 14.3568 8.02642 17.0781L9.4347 30.9515C9.51922 31.7846 9.47467 32.9953 10.3158 33.6815Z" fill="#FCC341"/>
<path fill-rule="evenodd" clip-rule="evenodd" d="M12.5667 12.9926L25.0374 23.1659C27.6346 25.2846 29.5463 19.7172 30.1143 18.2204C30.9736 15.9563 31.665 12.6065 31.721 10.1631C31.787 7.28527 28.246 8.13934 27.1491 8.25066L13.8334 9.59803C13.1323 9.67888 12.2157 10.0001 11.8859 10.8007C11.604 11.485 11.8432 12.4023 12.5667 12.9926Z" fill="#FCC341"/>
</svg>
