<svg width="170" height="34" viewBox="0 0 170 34" fill="none" xmlns="http://www.w3.org/2000/svg">
<g clip-path="url(#clip0_5_19)">
<mask id="mask0_5_19" style="mask-type:luminance" maskUnits="userSpaceOnUse" x="0" y="0" width="170" height="34">
<path d="M0.265076 0.340389H169.731V33.4104H0.265076V0.340389Z" fill="white"/>
</mask>
<g mask="url(#mask0_5_19)">
<path d="M169.727 7.99269V12.0933H165.345V25.9317H160.809V12.0933H156.401V7.99269H169.727ZM146.886 21.652H153.627V25.9317H142.197V7.9922H153.396V12.0669H146.886V14.6297H152.883V18.7301H146.886V21.652ZM133.008 21.7544H129.394V18.7818H132.982C133.29 18.7818 133.521 18.8588 133.751 18.9613C134.187 19.2686 134.418 19.8324 134.392 20.3709C134.315 21.0882 133.905 21.7544 133.008 21.7544ZM129.394 11.9906H132.291C133.239 11.9906 133.7 12.7849 133.675 13.5794C133.649 14.297 133.187 14.989 132.291 14.989H129.394V11.9906ZM136.801 16.5265C137.698 15.809 138.287 14.5275 138.287 13.4256C138.287 10.094 135.955 7.91586 132.623 7.91586H124.705V25.8287H133.341C137.031 25.8287 139.031 23.4453 139.031 20.3704C139.031 18.7301 138.261 17.2693 136.801 16.526M116.097 17.1925H112.791V12.0413H116.097C117.378 12.0413 118.044 13.2971 118.044 14.5785C118.044 15.8853 117.327 17.1925 116.097 17.1925ZM116.097 7.96653C113.431 7.94086 110.843 7.96653 108.178 7.96653V25.9061H112.868V21.2675H116.097C120.351 21.2675 122.529 17.9873 122.529 14.707C122.606 11.3243 120.402 7.96703 116.097 7.96703M103.135 7.94136H104.801V25.9309H100.111V17.6533L96.2925 21.6512H95.7543L91.9358 17.6533V25.9309H87.246V7.94136H88.9118L96.0363 15.7065L103.135 7.94136ZM81.5688 21.7287H83.8496V25.9317H74.5984V21.7287H76.879V12.1956H74.8033V7.99269H83.6443V12.1956H81.5688V21.7287ZM65.1598 21.7032H71.6434V25.9061H60.4699V7.96653H65.1598V21.7032ZM48.2735 21.8315C45.9671 21.8315 43.7631 20.1656 43.7631 16.9623C43.7631 13.6821 45.9927 12.0933 48.3247 12.0933C50.5545 12.0933 52.7839 13.7589 52.7839 16.9623C52.7839 20.1656 50.5031 21.8315 48.2735 21.8315ZM48.3247 7.63404C43.6606 7.63404 39.0732 10.7605 39.0732 16.9623C39.0732 23.1898 43.5068 26.2647 48.2478 26.2647C53.6805 26.2647 57.4736 22.4467 57.4736 16.9623C57.4736 10.7605 52.9121 7.63404 48.3247 7.63404Z" fill="#771610"/>
<path d="M16.8001 1.17286C8.12786 1.17286 1.09753 8.20319 1.09753 16.8755C1.09753 25.5476 8.12786 32.5781 16.8001 32.5781C25.4724 32.5781 32.5027 25.5476 32.5027 16.8755C32.5027 8.20319 25.4724 1.17286 16.8001 1.17286Z" fill="#771610"/>
<path d="M16.1423 28.1259C15.583 28.398 14.9017 28.6322 14.0151 28.7388L13.8399 28.76L14.7592 29.5232L14.7967 29.5133C15.4575 29.3452 16.061 28.9463 16.6128 28.5152C16.5038 28.4262 16.3965 28.3372 16.2917 28.2495C16.2415 28.2079 16.192 28.167 16.1423 28.1259ZM18.4463 26.8187C18.087 26.9187 17.7431 27.144 17.34 27.413C17.2318 27.4849 17.1192 27.5599 17.002 27.6355C17.1297 27.7127 17.2645 27.7899 17.4073 27.8655C17.7035 27.6209 17.9915 27.3932 18.2731 27.2172C19.1794 28.2294 20.8261 28.3873 22.4485 27.6462C21.2977 26.1349 19.8229 25.9591 18.4463 26.8187ZM20.3187 26.0214C20.8006 26.0632 21.2669 26.2297 21.7009 26.5169C22.0117 26.0787 22.3202 25.7196 22.6565 25.4669C22.9578 24.8063 23.1752 24.0191 23.3122 23.149C21.7572 23.6221 20.7561 24.6678 20.3187 26.0214ZM21.9165 26.7367C23.1317 27.7094 24.2698 27.5704 25.5068 25.9211C23.639 24.8393 22.8533 25.4003 21.9165 26.7367ZM24.4963 24.5111C24.3881 24.5278 24.2855 24.5559 24.1888 24.5926C24.2181 23.942 24.567 23.2051 25.1523 22.5327C25.1938 21.9073 25.0761 21.1812 24.7671 20.3566C23.4075 21.6382 23.272 22.9893 23.8515 24.5638C23.7108 24.7519 23.5548 24.9344 23.3925 25.1074C23.5847 25.0599 23.7888 25.0438 24.0083 25.0606C24.2295 24.8943 24.4585 24.7809 24.6873 24.7214C26.6571 25.0884 27.5382 24.2695 28.7109 20.828C26.2956 21.2917 24.6296 23.1716 24.4963 24.5111ZM25.3909 22.2775C25.5258 22.1407 25.6694 22.007 25.8229 21.8793C25.9168 21.6632 25.9966 21.4337 26.0553 21.195C26.7337 20.1474 26.4359 18.7869 25.314 16.9808C24.4825 18.8601 24.8468 20.6347 25.6648 21.335C25.5814 21.5504 25.4814 21.7515 25.3748 21.935C25.3848 22.0517 25.3901 22.1657 25.3909 22.2775ZM29.1202 14.9672C27.4572 16.8726 27.4964 18.6093 28.0009 20.0932C27.8174 20.2494 27.6542 20.3332 27.4941 20.4149C27.4616 20.4317 27.4286 20.4485 27.3956 20.4659C27.4836 20.2862 27.5632 20.1012 27.6272 19.9129C27.5441 19.6299 27.4837 19.3526 27.4442 19.0801C27.3399 20.0222 26.7842 20.956 26.3111 21.511C26.5808 21.3275 26.8711 21.161 27.1777 21.0159C27.3479 20.8744 27.5249 20.756 27.6992 20.6424C27.8911 20.5169 28.0782 20.3935 28.2464 20.2449C29.3598 19.9252 30.2547 17.4886 29.1202 14.9672ZM25.4993 14.0112C25.7888 17.0498 26.0241 17.7794 27.4172 18.8888C27.3266 18.0516 27.4467 17.2568 27.7789 16.484C27.4604 15.6715 26.7449 14.8939 25.4993 14.0112ZM27.1346 14.9937C27.3844 15.2575 27.5917 15.5217 27.7576 15.7897C28.9544 14.9282 29.0204 13.1004 28.0919 11.1564C26.9146 12.7706 26.7577 13.9312 27.1346 14.9937ZM26.9004 12.3131C26.8959 12.4274 26.9009 12.5396 26.9137 12.6507C27.0181 12.3681 27.1586 12.0701 27.3394 11.7553C27.6607 10.4848 27.1609 8.98483 24.9465 8.15652C25.3103 10.3951 25.5648 11.2178 26.9004 12.3131ZM26.5279 13.7847C26.5783 13.8422 26.6198 13.8977 26.6581 13.9525C26.6606 13.7302 26.6863 13.4964 26.7387 13.2506C26.7364 12.9566 26.6809 12.6862 26.5794 12.4394C26.1183 12.0453 25.7871 11.6716 25.5354 11.2621C25.0105 10.9261 24.3538 10.6928 23.647 10.5603C23.839 12.5127 25.115 13.769 26.5279 13.7847ZM24.2095 9.78531C24.5561 10.1705 24.9565 10.54 25.3018 10.826C25.2113 10.6283 25.1341 10.4173 25.0646 10.191C24.877 10.0411 24.6825 9.86648 24.4966 9.68115C25.065 8.34668 24.3106 7.07938 22.6092 5.80375C22.2602 7.6022 22.6859 9.40749 24.2095 9.78531ZM19.8759 6.64039C20.7089 6.57873 21.412 6.70973 21.9265 7.03289C22.0264 7.09555 22.1147 7.16788 22.1985 7.24371C22.1844 6.97939 22.1905 6.70406 22.2159 6.42073C21.5907 5.63492 20.4406 5.22126 18.7933 5.22393C19.0953 5.84425 19.4569 6.3059 19.8759 6.64039ZM22.4769 8.57401C22.3759 8.32335 22.3012 8.04886 22.2537 7.75536C21.6014 6.80539 20.0609 6.72339 18.3185 7.25621C19.3899 8.76734 20.8502 9.09233 22.4769 8.57401ZM22.1364 8.80517C22.2972 8.80467 22.4485 8.81334 22.5917 8.82901C22.6524 8.94734 22.7193 9.05933 22.7933 9.16366C23.1435 9.65782 23.6213 9.96981 24.2128 10.0966C23.2812 10.1616 22.5885 9.84398 22.1364 8.80517Z" fill="#FCC341"/>
<path d="M19.6296 28.7727C17.964 28.5722 17.0245 27.9652 16.2695 27.4775C15.9497 27.2709 15.6547 27.0826 15.3464 26.9494C13.9283 25.9817 12.3883 26.1144 11.196 27.6797C12.8048 28.415 14.4381 28.267 15.3492 27.2779C15.6689 27.4882 16.0005 27.7547 16.3432 28.0319C17.0855 28.6322 17.9268 29.3127 18.848 29.5472L18.8855 29.5568L19.8048 28.7937L19.6296 28.7727ZM13.3734 26.0357C12.9945 24.7193 12.0718 23.6656 10.5972 23.1168C10.633 24.6571 11.0328 25.8994 11.718 26.7054C12.2303 26.2984 12.7906 26.0747 13.3734 26.0357ZM9.7047 24.8156C10.072 25.3819 10.5967 25.8892 11.0295 26.2666C10.8742 25.9782 10.7385 25.6588 10.627 25.3013C10.3965 25.0564 10.178 24.7963 9.98736 24.5316C10.5017 23.0823 10.3477 21.805 9.10055 20.5567C8.28207 22.5562 8.62056 24.0055 9.7047 24.8156ZM9.01622 24.7436C9.08472 24.7613 9.15388 24.7833 9.22305 24.8079C8.66056 24.2691 8.3654 23.5613 8.34124 22.7222C7.58359 21.7374 6.32562 20.851 4.69599 20.656C5.94946 24.3273 6.88711 25.1664 9.01622 24.7436ZM8.35657 16.8908C6.54095 18.9311 6.77394 20.3816 7.66859 21.5085C7.68525 21.5599 7.70259 21.6105 7.72092 21.6609C7.95258 21.8555 8.16174 22.0635 8.35024 22.2782C8.35407 22.2297 8.3619 22.1792 8.3674 22.13C8.24374 21.935 8.12508 21.716 8.02491 21.479C8.92572 20.7134 9.62804 18.8264 8.35657 16.8908ZM5.39998 20.2792C5.53431 20.3979 5.68014 20.5007 5.8313 20.601C6.28845 20.7527 6.71028 20.9569 7.09143 21.199C6.97294 20.9919 6.87977 20.7825 6.81277 20.5697C6.51928 20.0419 6.28395 19.4547 6.23046 18.8943C6.19962 19.1942 6.13912 19.5006 6.05446 19.8126C6.14262 20.0722 6.26079 20.3317 6.39629 20.5824C6.31262 20.532 6.23112 20.49 6.15079 20.449C5.99046 20.3671 5.8273 20.2832 5.6438 20.1271C6.14829 18.6434 6.18746 16.9066 4.52466 15.0009C3.38936 17.5238 4.28584 19.9614 5.39998 20.2792ZM8.14541 13.9044C6.86194 14.814 6.14162 15.612 5.8383 16.4513C6.17196 17.199 6.30245 17.9668 6.23896 18.7731C7.62225 17.6686 7.85675 16.9348 8.14541 13.9044ZM6.00679 14.3944C5.92146 14.5845 5.84097 14.764 5.77347 14.949C5.65697 15.269 5.56814 15.5543 5.49897 15.809C5.62064 16.0087 5.72664 16.2092 5.8188 16.4115C5.88347 16.0798 5.97613 15.6803 6.10746 15.232C6.27329 14.8599 6.50862 14.5974 6.65545 14.3744C6.77978 14.1859 6.90577 14.0049 7.08793 13.8185C8.51223 13.8199 9.80437 12.5599 9.9977 10.5941C8.18091 10.935 6.69444 11.9391 6.9296 13.6532C6.83677 13.7692 6.75144 13.8919 6.66494 14.0167C6.57011 14.1537 6.47328 14.2929 6.36295 14.4275C6.60828 13.6767 6.83244 12.9509 6.81494 12.2884L6.81761 12.2863C6.87594 12.1574 6.94327 12.0316 7.02527 11.9109C7.23793 11.5968 7.53109 11.3179 7.89042 11.0788C8.29657 10.3858 8.4774 9.54899 8.69823 8.19036C6.11629 9.15633 5.86547 11.0346 6.52928 12.3983C6.51395 13.2596 6.24846 13.855 6.00679 14.3944ZM8.58823 10.2183C8.52557 10.4265 8.45457 10.6176 8.3749 10.8001C8.40324 10.7861 8.43273 10.7731 8.46157 10.7596C8.77789 10.49 9.12772 10.1605 9.43538 9.81898C10.9588 9.44132 11.3845 7.6362 11.0357 5.83775C9.33405 7.11321 8.57973 8.38085 9.14788 9.71465C8.96489 9.89781 8.77339 10.07 8.58823 10.2183ZM15.1446 5.20526C13.3631 5.28459 12.1221 5.77542 11.442 6.62856C11.467 7.03505 11.45 7.42321 11.392 7.78353C13.1041 7.71103 14.3641 7.01638 15.1446 5.20526ZM12.2386 8.75884L12.5538 8.82184C13.4869 8.72801 14.3208 8.24652 14.9989 7.29021C14.7297 7.20771 14.4653 7.14005 14.2081 7.08822C13.4798 7.7297 12.5396 8.04869 11.3323 8.08786C11.2843 8.29102 11.2218 8.48335 11.1457 8.66284C11.4658 8.65068 11.8253 8.67601 12.2386 8.75884ZM12.1791 9.05633C11.7383 8.9685 11.3423 8.94267 10.991 8.97517C10.947 9.05217 10.9013 9.12716 10.8515 9.1975C10.4912 9.70565 9.9962 10.0205 9.38171 10.1401C10.4823 10.4268 11.3895 10.1986 12.1791 9.05633ZM11.3457 26.9542C11.3183 26.9244 11.1837 26.8156 11.0647 26.7194C10.6953 26.4207 10.0592 25.7689 9.68787 25.3086L9.60654 25.2076C9.12988 25.1693 8.57756 25.2889 7.91058 25.6148C8.56973 27.1889 10.1827 27.6564 11.3835 26.9957L11.3457 26.9542ZM5.35614 15.4752C4.53833 14.5237 4.58333 12.9019 5.40098 11.1899C5.81113 11.7523 6.09646 12.2593 6.27962 12.7264C6.21062 13.3794 5.99329 13.8677 5.79247 14.316C5.70597 14.5089 5.62414 14.691 5.55497 14.8809C5.47748 15.0935 5.41198 15.2912 5.35614 15.4752Z" fill="#FCC341"/>
<path d="M16.8002 31.6222C8.6557 31.6222 2.05336 25.0198 2.05336 16.8754C2.05336 8.73073 8.6557 2.12839 16.8002 2.12839C24.9446 2.12839 31.547 8.73073 31.547 16.8754C31.547 25.0198 24.9446 31.6222 16.8002 31.6222ZM16.8002 0.339602C7.66822 0.339602 0.265076 7.74275 0.265076 16.8747C0.265076 26.0068 7.66822 33.4096 16.8002 33.4096C25.9321 33.4096 33.3351 26.0068 33.3351 16.8747C33.3351 7.74275 25.9321 0.339602 16.8002 0.339602Z" fill="#FCC341"/>
</g>
</g>
<defs>
<clipPath id="clip0_5_19">
<rect width="170" height="33.75" fill="white"/>
</clipPath>
</defs>
</svg>
